Coordinates
version=1
nRows=6
nColumns=63
inDegrees=yes

Units are S.I. units (second, meters, Newtons, ...)
If the header above contains a line with 'inDegrees', this indicates whether rotational values are in degrees (yes) or radians (no).

endheader
time	pelvis_tilt	pelvis_list	pelvis_rotation	pelvis_tx	pelvis_ty	pelvis_tz	hip_flexion_r	hip_adduction_r	hip_rotation_r	knee_angle_r	knee_angle_r_beta	ankle_angle_r	subtalar_angle_r	mtp_angle_r	hip_flexion_l	hip_adduction_l	hip_rotation_l	knee_angle_l	knee_angle_l_beta	ankle_angle_l	subtalar_angle_l	mtp_angle_l	L5_S1_Flex_Ext	L5_S1_Lat_Bending	L5_S1_axial_rotation	L4_L5_Flex_Ext	L4_L5_Lat_Bending	L4_L5_axial_rotation	L3_L4_Flex_Ext	L3_L4_Lat_Bending	L3_L4_axial_rotation	L2_L3_Flex_Ext	L2_L3_Lat_Bending	L2_L3_axial_rotation	L1_L2_Flex_Ext	L1_L2_Lat_Bending	L1_L2_axial_rotation	L1_T12_Flex_Ext	L1_T12_Lat_Bending	L1_T12_axial_rotation	Abs_r3	Abs_r2	Abs_r1	Abs_t1	Abs_t2	neck_flexion	neck_bending	neck_rotation	arm_flex_r	arm_add_r	arm_rot_r	elbow_flex_r	pro_sup_r	wrist_flex_r	wrist_dev_r	arm_flex_l	arm_add_l	arm_rot_l	elbow_flex_l	pro_sup_l	wrist_flex_l	wrist_dev_l
0.000000	3.042913	-5.336392	93.788472	0.154260	0.986913	0.173143	-14.825699	1.081607	8.854724	0.603519	0.010533	23.007163	-12.390573	0.000000	-13.489992	-3.913795	4.243524	0.165429	0.002887	28.288932	1.508786	0.000000	-0.015354	0.700105	-0.104224	-0.028514	0.931140	-0.110738	-0.025225	1.702236	-0.110738	-0.017548	1.702236	-0.091196	-0.014258	1.427655	-0.084682	-0.008773	1.084463	-0.078168	-0.109674	7.919733	-0.579663	0.000000	0.000000	27.343285	-3.415675	3.220415	7.623079	-16.156468	141.762378	9.214666	6.332478	-15.603114	-11.653726	0.523915	-14.507310	70.860714	19.527376	72.383496	-8.066783	2.227287
0.016949	3.114213	-6.244191	94.841912	0.153882	0.989473	0.181593	-13.317081	1.170322	8.114218	0.651112	0.011364	21.815779	-12.776859	0.000000	-11.761362	-4.079922	4.171122	0.222718	0.003887	27.576725	2.268106	0.000000	0.000430	0.690984	-0.063874	0.000799	0.919009	-0.067866	0.000707	1.680058	-0.067866	0.000492	1.680058	-0.055890	0.000399	1.409054	-0.051897	0.000246	1.070334	-0.047905	0.003073	7.816548	-0.355247	0.000000	0.000000	27.496560	-4.319818	1.558031	9.256888	-14.986016	159.587829	5.031656	4.029496	-13.815193	-13.218133	3.611840	-15.881319	76.405820	20.650659	78.011564	-11.963773	1.221929
0.033898	3.129979	-7.062081	95.819441	0.153563	0.991480	0.188639	-12.020705	1.210253	7.389436	0.680132	0.011871	20.916072	-13.041438	0.000000	-10.247585	-4.181169	4.224761	0.268723	0.004690	26.958374	2.882638	0.000000	0.019137	0.673737	-0.080518	0.035539	0.896070	-0.085551	0.031440	1.638125	-0.085551	0.021872	1.638125	-0.070453	0.017771	1.373885	-0.065421	0.010935	1.043619	-0.060389	0.136694	7.621449	-0.447818	0.000000	0.000000	27.630420	-4.864753	0.322435	10.735983	-13.994286	171.911595	2.261858	2.799642	-12.074062	-14.144737	5.979900	-16.832262	79.662212	21.918027	82.413846	-14.994090	0.416692
0.050847	3.097198	-7.793072	96.717459	0.153306	0.992991	0.194392	-10.921911	1.207325	6.687828	0.692618	0.012088	20.280102	-13.194758	0.000000	-8.936869	-4.225007	4.382325	0.304430	0.005313	26.426890	3.367170	0.000000	0.040384	0.649488	-0.146055	0.074997	0.863819	-0.155184	0.066346	1.579164	-0.155184	0.046155	1.579164	-0.127799	0.037500	1.324435	-0.118670	0.023075	1.006056	-0.109542	0.288457	7.347134	-0.812317	0.000000	0.000000	27.745940	-5.089927	-0.528230	12.082246	-13.162614	179.302285	0.761788	2.535970	-10.389386	-14.501021	7.722306	-17.400220	80.915401	23.299769	85.699575	-17.228468	-0.210081
0.067797	3.022857	-8.440173	97.532370	0.153116	0.994062	0.198967	-10.006042	1.167467	6.016843	0.690608	0.012053	19.879926	-13.247269	0.000000	-7.817421	-4.218912	4.621698	0.330820	0.005774	25.975287	3.736485	0.000000	0.063788	0.619357	-0.252384	0.118460	0.823745	-0.268158	0.104797	1.505906	-0.268158	0.072903	1.505906	-0.220836	0.059233	1.262994	-0.205062	0.036448	0.959385	-0.189288	0.455628	7.006295	-1.403684	0.000000	0.000000	27.844196	-5.034782	-1.035820	13.317560	-12.472337	182.328503	0.387964	3.131531	-8.770830	-14.354466	8.933267	-17.625277	80.450897	24.766174	87.977981	-18.737639	-0.680047
0.084746	2.913944	-9.006394	98.260575	0.152997	0.994749	0.202475	-9.258438	1.096604	5.383931	0.676138	0.011801	19.687605	-13.209418	0.000000	-6.877449	-4.170358	4.920763	0.348880	0.006089	25.596578	4.005371	0.000000	0.088966	0.584469	-0.391402	0.165219	0.777344	-0.415865	0.146162	1.421078	-0.415865	0.101679	1.421078	-0.342477	0.082614	1.191849	-0.318014	0.050835	0.905342	-0.293552	0.635474	6.611628	-2.176861	0.000000	0.000000	27.926263	-4.738764	-1.242193	14.463806	-11.904789	181.558856	0.996903	4.479378	-7.228061	-13.772554	9.706996	-17.547513	78.554210	26.287532	89.358298	-19.592337	-1.014864
